# xmcd CD database file
#
# Track frame offsets:
#	150
#	15314
#	31458
#	48595
#	70293
#	84208
#	100723
#	120461
#	138823
#	154075
#	173685
#	189932
#	207878
#
# Disc length: 3054 seconds
#
# Revision: 1
# Processed by: cddbd v1.5.2PL0 Copyright (c) Steve Scherf et al.
# Submitted via: CDex 1.70beta2
#
DISCID=980bec0d
DTITLE=Carrie Underwood - Carnival Ride
DYEAR=2007
DGENRE=Country
TTITLE0=Flat On The Floor
TTITLE1=All American Girl
TTITLE2=So Small
TTITLE3=Just A Dream
TTITLE4=Get Out Of This Town
TTITLE5=Crazy Dreams
TTITLE6=I Know You Wont
TTITLE7=Last Name
TTITLE8=You Wont Find Me
TTITLE9=I Told You So
TTITLE10=The More Boys I Meet
TTITLE11=Twisted
TTITLE12=Wheel Of The World
EXTD=YEAR: 2007
EXTT0=
EXTT1=
EXTT2=
EXTT3=
EXTT4=
EXTT5=
EXTT6=
EXTT7=
EXTT8=
EXTT9=
EXTT10=
EXTT11=
EXTT12=
PLAYORDER=
